<?xml version="1.0" encoding="UTF-8"?>
<svg width="256px" height="256px" viewBox="0 0 256 256" version="1.1" xmlns="http://www.w3.org/2000/svg" preserveAspectRatio="xMidYMid">
    <g>
        <path d="M241.871,161.361 C241.871,161.361 255.871,175.361 255.871,175.361 C255.871,175.361 121.871,309.361 121.871,309.361 C121.871,309.361 107.871,295.361 107.871,295.361 C107.871,295.361 241.871,161.361 241.871,161.361" fill="#512BD4"></path>
        <path d="M224.571,128.361 C224.571,128.361 238.571,142.361 238.571,142.361 C238.571,142.361 104.571,276.361 104.571,276.361 C104.571,276.361 90.571,262.361 90.571,262.361 C90.571,262.361 224.571,128.361 224.571,128.361" fill="#512BD4"></path>
        <path d="M207.271,95.361 C207.271,95.361 221.271,109.361 221.271,109.361 C221.271,109.361 87.271,243.361 87.271,243.361 C87.271,243.361 73.271,229.361 73.271,229.361 C73.271,229.361 207.271,95.361 207.271,95.361" fill="#512BD4"></path>
        <path d="M189.971,62.361 C189.971,62.361 203.971,76.361 203.971,76.361 C203.971,76.361 69.971,210.361 69.971,210.361 C69.971,210.361 55.971,196.361 55.971,196.361 C55.971,196.361 189.971,62.361 189.971,62.361" fill="#512BD4"></path>
        <path d="M172.671,29.361 C172.671,29.361 186.671,43.361 186.671,43.361 C186.671,43.361 52.671,177.361 52.671,177.361 C52.671,177.361 38.671,163.361 38.671,163.361 C38.671,163.361 172.671,29.361 172.671,29.361" fill="#512BD4"></path>
        <path d="M155.371,-3.639 C155.371,-3.639 169.371,10.361 169.371,10.361 C169.371,10.361 35.371,144.361 35.371,144.361 C35.371,144.361 21.371,130.361 21.371,130.361 C21.371,130.361 155.371,-3.639 155.371,-3.639" fill="#512BD4"></path>
    </g>
</svg>
