<?xml version="1.0" encoding="UTF-8"?>
<svg width="256px" height="135px" viewBox="0 0 256 135" version="1.1" xmlns="http://www.w3.org/2000/svg" preserveAspectRatio="xMidYMid">
    <g>
        <path d="M64.7339924,96.4193401 C67.2136675,96.4193401 69.1318479,96.8082079 70.4882797,97.5867903 C71.8447114,98.3645259 72.7578616,99.5336614 73.2277164,101.093797 C73.6971926,102.654785 73.7462882,104.674389 73.3745475,107.152609 C72.9805011,109.791476 72.2905183,111.943303 71.3071711,113.610054 C70.3225428,115.276805 69.0445586,116.493085 67.4718024,117.258893 C65.8977649,118.023848 63.9835074,118.406177 61.7290297,118.406177 L55.7814703,118.406177 L58.7136675,96.4193401 L64.7339924,96.4193401 Z M40.0014331,129.897207 L46.2942543,129.897207 L48.1711498,117.152609 L55.4673387,117.152609 C57.6086675,117.152609 59.4619835,116.979984 61.0297935,116.634734 C62.5972249,116.290337 64.0018479,115.721078 65.2425703,114.927609 C66.4840297,114.134993 67.5952685,113.127403 68.5774874,111.904389 C69.5589475,110.682228 70.3881498,109.227403 71.0622364,107.541078 C71.9857935,105.352609 72.5110526,103.29842 72.6389475,101.378251 C72.7660835,99.4576347 72.5345817,97.7707903 71.9444331,96.3168959 C71.3535251,94.8630014 70.3881498,93.7153401 69.0472457,92.8730014 C67.7059629,92.0310403 65.9445817,91.6100569 63.7627164,91.6100569 L47.2844331,91.6100569 L40.0014331,129.897207 Z M89.5569924,96.4193401 C92.0366675,96.4193401 93.9548479,96.8082079 95.3112797,97.5867903 C96.6677114,98.3645259 97.5808616,99.5336614 98.0507164,101.093797 C98.5201926,102.654785 98.5692882,104.674389 98.1975475,107.152609 C97.8035011,109.791476 97.1135183,111.943303 96.1301711,113.610054 C95.1455428,115.276805 93.8675586,116.493085 92.2948024,117.258893 C90.7207649,118.023848 88.8065074,118.406177 86.5520297,118.406177 L80.6044703,118.406177 L83.5366675,96.4193401 L89.5569924,96.4193401 Z M64.8244331,129.897207 L71.1172543,129.897207 L72.9941498,117.152609 L80.2903387,117.152609 C82.4316675,117.152609 84.2849835,116.979984 85.8527935,116.634734 C87.4202249,116.290337 88.8248479,115.721078 90.0655703,114.927609 C91.3070297,114.134993 92.4182685,113.127403 93.4004874,111.904389 C94.3819475,110.682228 95.2111498,109.227403 95.8852364,107.541078 C96.8087935,105.352609 97.3340526,103.29842 97.4619475,101.378251 C97.5890835,99.4576347 97.3575817,97.7707903 96.7674331,96.3168959 C96.1765251,94.8630014 95.2111498,93.7153401 93.8702457,92.8730014 C92.5289629,92.0310403 90.7675817,91.6100569 88.5857164,91.6100569 L72.1074331,91.6100569 L64.8244331,129.897207 Z M128.266418,107.152609 C127.872372,109.791476 127.182389,111.943303 126.199042,113.610054 C125.214414,115.276805 123.93643,116.493085 122.363674,117.258893 C120.789636,118.023848 118.875379,118.406177 116.620901,118.406177 L110.673342,118.406177 L113.605539,96.4193401 L119.625864,96.4193401 C122.105539,96.4193401 124.023719,96.8082079 125.380151,97.5867903 C126.736583,98.3645259 127.649733,99.5336614 128.119588,101.093797 C128.589064,102.654785 128.63816,104.674389 128.266418,107.152609 Z M94.8933387,129.897207 L101.18616,129.897207 L103.063055,117.152609 L110.359244,117.152609 C112.500573,117.152609 114.353889,116.979984 115.921699,116.634734 C117.48913,116.290337 118.893753,115.721078 120.134476,114.927609 C121.375935,114.134993 122.487174,113.127403 123.469393,111.904389 C124.450853,110.682228 125.280055,109.227403 125.954142,107.541078 C126.877699,105.352609 127.402958,103.29842 127.530853,101.378251 C127.657989,99.4576347 127.426487,97.7707903 126.836338,96.3168959 C126.24543,94.8630014 125.280055,93.7153401 123.939151,92.8730014 C122.597868,92.0310403 120.836487,91.6100569 118.654622,91.6100569 L102.176338,91.6100569 L94.8933387,129.897207 Z M148.686487,91.6100569 L142.403666,129.897207 L148.696487,129.897207 L152.901699,102.472609 L161.665935,129.897207 L169.352756,129.897207 L175.635577,102.472609 L179.840789,129.897207 L186.17371,129.897207 L181.968497,91.6100569 L172.673387,91.6100569 L166.843666,117.042477 L158.688497,91.6100569 L148.686487,91.6100569 Z M192.944331,129.897207 L199.237152,129.897207 L204.750297,91.6100569 L198.457476,91.6100569 L192.944331,129.897207 Z M208.560789,129.897207 L214.85361,129.897207 L220.366756,91.6100569 L214.073934,91.6100569 L208.560789,129.897207 Z" fill="#777BB3"></path>
        <path d="M40.9475703,0.0288959276 C18.3678616,0.0288959276 0.0454080537,7.45568014 0.0454080537,16.6582079 C0.0454080537,25.8603624 18.3678616,33.2875199 40.9475703,33.2875199 C63.527279,33.2875199 81.8497326,25.8603624 81.8497326,16.6582079 C81.8497326,7.45568014 63.527279,0.0288959276 40.9475703,0.0288959276 Z M40.9475703,4.83817903 C60.4956903,4.83817903 76.3344331,10.1673401 76.3344331,16.6582079 C76.3344331,23.1487025 60.4956903,28.4782368 40.9475703,28.4782368 C21.3994503,28.4782368 5.56070751,23.1487025 5.56070751,16.6582079 C5.56070751,10.1673401 21.3994503,4.83817903 40.9475703,4.83817903 Z" fill="#000000"></path>
        <path d="M45.6981498,16.6582079 C45.6981498,19.2827025 43.5720526,21.4091722 40.9475703,21.4091722 C38.323088,21.4091722 36.1969908,19.2827025 36.1969908,16.6582079 C36.1969908,14.0337135 38.323088,11.9072437 40.9475703,11.9072437 C43.5720526,11.9072437 45.6981498,14.0337135 45.6981498,16.6582079" fill="#000000"></path>
    </g>
</svg>
