<?xml version="1.0" encoding="UTF-8"?>
<svg width="256px" height="256px" viewBox="0 0 256 256" version="1.1" xmlns="http://www.w3.org/2000/svg" preserveAspectRatio="xMidYMid">
    <g>
        <path d="M210.483381,73.8236374 C207.827698,72.9095503 205.075867,72.0446761 202.24247,71.2267368 C202.708172,69.3261098 203.135596,67.4500894 203.515631,65.6059664 C209.753843,35.3248922 205.675082,10.9302478 191.747328,2.89849283 C178.392359,-4.80289661 156.551327,3.22703567 134.492936,22.4237776 C132.371761,24.2697233 130.244662,26.2241201 128.118477,28.2723861 C126.701777,26.917204 125.287358,25.6075897 123.876584,24.3549348 C100.758745,3.82852863 77.5866802,-4.82157937 63.6725966,3.23341515 C50.3303869,10.9571328 46.3792156,33.8904224 51.9945178,62.5880206 C52.5367729,65.3599011 53.1706189,68.1905639 53.8873982,71.068617 C50.6078941,71.9995641 47.4418534,72.9920277 44.4125156,74.0478303 C17.3093297,83.497195 0,98.3066828 0,113.667995 C0,129.533287 18.5815786,145.446423 46.8116526,155.095373 C49.0394553,155.856809 51.3511025,156.576778 53.7333796,157.260293 C52.9600965,160.37302 52.2875179,163.423318 51.7229345,166.398431 C46.3687351,194.597975 50.5500231,216.989464 63.8566899,224.664425 C77.6012619,232.590464 100.66852,224.443422 123.130185,204.809231 C124.905501,203.257196 126.687196,201.611293 128.472081,199.886102 C130.785552,202.113904 133.095375,204.222319 135.392897,206.199955 C157.14963,224.922338 178.637969,232.482469 191.932332,224.786092 C205.663234,216.837268 210.125675,192.78347 204.332202,163.5181 C203.88974,161.283006 203.374826,158.99961 202.796573,156.675661 C204.416503,156.196743 206.006814,155.702335 207.557482,155.188332 C236.905331,145.46465 256,129.745175 256,113.667995 C256,98.2510906 238.132466,83.3418093 210.483381,73.8236374 Z" fill="#00D8FF"></path>
        <path d="M201.345395,142.849369 C199.916404,143.311582 198.46053,143.766177 196.981449,144.211632 C194.59821,137.153357 191.704854,129.700936 188.339957,122.002343 C191.521859,114.507941 194.261137,107.157098 196.536648,100.197372 C199.21292,100.974036 201.794899,101.80472 204.264587,102.688563 C228.687811,110.982778 244.088863,123.942629 244.088863,133.667995 C244.088863,143.902196 227.707574,157.538018 201.345395,142.849369 Z" fill="#00D8FF"></path>
        <path d="M171.410804,149.843596 C173.772191,159.899251 174.636958,169.095342 174.026394,176.557353 C173.472756,183.448739 171.697301,188.16291 169.084895,190.51583 C163.5714,195.438361 147.466457,189.617953 130.251116,174.256353 C128.117013,172.40389 125.99607,170.388931 123.897144,168.235927 C129.219339,162.524578 134.541533,156.063228 139.763123,148.969812 C147.789465,148.231293 155.439769,147.121578 162.463948,145.664036 C165.630346,147.161973 168.637874,148.517582 171.410804,149.843596 Z" fill="#00D8FF"></path>
        <path d="M107.240001,175.236281 C101.822898,182.114091 96.5273224,187.854755 91.5199504,192.326882 C86.0169273,197.163126 80.8794061,199.783377 76.8506162,199.783377 C75.2339091,199.783377 73.8300632,199.354039 72.6608629,198.504474 C67.1536204,193.581942 65.2654449,180.982854 68.5631803,163.628139 C69.0687017,160.905917 69.6778912,158.109364 70.3807305,155.249971 C77.3124935,156.642155 85.0862862,157.697378 93.4359875,158.380298 C98.6920735,165.360477 104.121486,171.821598 109.604071,177.459481 C108.829825,176.732018 108.038537,175.989674 107.240001,175.236281 Z" fill="#00D8FF"></path>
        <path d="M54.5498721,142.849369 C41.4507124,137.514244 30.8030163,130.913466 23.8390994,124.017968 C17.5917677,117.783667 14.5617426,111.763357 14.5617426,106.667995 C14.5617426,96.9426275 29.1684356,84.4033679 52.7971335,76.2496527 C55.4981135,75.3169416 58.3293104,74.4447262 61.2629206,73.6334642 C63.5707655,80.7058991 66.3165139,88.1478725 69.4138133,95.7043042 C66.2776498,103.387026 63.4786567,110.953178 61.1317661,118.127348 C58.8743425,117.644418 56.6777567,117.123338 54.5498721,142.849369 Z" fill="#00D8FF"></path>
        <path d="M128.072558,84.1883013 C122.394172,77.7509631 116.746589,72.1648775 111.24735,67.5892801 C116.555101,62.1900695 121.99393,57.6889532 127.445064,54.1983349 C139.456433,46.3220413 150.969872,43.8862821 155.411536,46.5921828 C160.127454,49.4684834 162.293701,63.0529167 158.814924,81.936766 C158.414906,83.9108755 157.951508,85.9286882 157.428111,87.9820505 C150.321139,86.4438841 142.723932,85.2942441 134.908947,84.5588146 C132.715727,84.3717367 130.448721,84.2577623 128.072558,84.1883013 Z" fill="#00D8FF"></path>
        <path d="M128,90.8076674 C134.145814,90.8076674 139.123548,95.7844047 139.123548,101.930219 C139.123548,108.076033 134.145814,113.052771 128,113.052771 C121.854186,113.052771 116.876452,108.076033 116.876452,101.930219 C116.876452,95.7844047 121.854186,90.8076674 128,90.8076674" fill="#00D8FF"></path>
    </g>
</svg>
