<?xml version="1.0" encoding="UTF-8"?>
<svg width="256px" height="256px" viewBox="0 0 256 256" version="1.1" xmlns="http://www.w3.org/2000/svg" preserveAspectRatio="xMidYMid">
    <g>
        <path d="M171.887235,157.404235 C159.272235,178.095235 139.677235,185.427235 138.731235,186.063235 C138.083235,186.383235 137.419235,186.551235 136.755235,186.551235 C134.867235,186.551235 133.043235,185.427235 132.067235,183.683235 L128.995235,177.327235 C128.659235,176.671235 128.483235,175.931235 128.483235,175.195235 C128.483235,173.307235 129.607235,171.483235 131.351235,170.507235 C132.067235,170.087235 151.166235,159.292235 151.166235,123.683235 C151.166235,88.0742352 132.067235,77.2792352 131.351235,76.8592352 C129.607235,75.8832352 128.483235,74.0592352 128.483235,72.1712352 C128.483235,71.4352352 128.659235,70.6992352 128.995235,70.0432352 L132.067235,63.6872352 C133.043235,61.9432352 134.867235,60.8192352 136.755235,60.8192352 C137.419235,60.8192352 138.083235,60.9872352 138.731235,61.3072352 C139.677235,61.9432352 159.272235,69.2752352 171.887235,89.9662352 C182.347235,106.931235 187.887235,127.827235 187.887235,151.675235 C187.887235,175.523235 182.347235,146.947235 171.887235,157.404235 L171.887235,157.404235 Z" fill="#001E2B"></path>
        <path d="M128.483235,247.371235 L124.435235,247.371235 C122.883235,247.371235 121.507235,246.163235 121.507235,244.611235 L121.507235,11.7592352 C121.507235,10.2072352 122.883235,8.99923521 124.435235,8.99923521 L128.483235,8.99923521 C130.035235,8.99923521 131.411235,10.2072352 131.411235,11.7592352 L131.411235,244.611235 C131.411235,246.163235 130.035235,247.371235 128.483235,247.371235" fill="#001E2B"></path>
        <path d="M85.0792352,157.404235 C74.6192352,146.947235 69.0792352,175.523235 69.0792352,151.675235 C69.0792352,127.827235 74.6192352,106.931235 85.0792352,89.9662352 C97.6942352,69.2752352 117.289235,61.9432352 118.235235,61.3072352 C118.883235,60.9872352 119.547235,60.8192352 120.211235,60.8192352 C122.099235,60.8192352 123.923235,61.9432352 124.899235,63.6872352 L127.971235,70.0432352 C128.307235,70.6992352 128.483235,71.4352352 128.483235,72.1712352 C128.483235,74.0592352 127.359235,75.8832352 125.615235,76.8592352 C124.899235,77.2792352 105.800235,88.0742352 105.800235,123.683235 C105.800235,159.292235 124.899235,170.087235 125.615235,170.507235 C127.359235,171.483235 128.483235,173.307235 128.483235,175.195235 C128.483235,175.931235 128.307235,176.671235 127.971235,177.327235 L124.899235,183.683235 C123.923235,185.427235 122.099235,186.551235 120.211235,186.551235 C119.547235,186.551235 118.883235,186.383235 118.235235,186.063235 C117.289235,185.427235 97.6942352,178.095235 85.0792352,157.404235" fill="#001E2B"></path>
    </g>
</svg>
