<?xml version="1.0" encoding="UTF-8"?>
<svg width="256px" height="133px" viewBox="0 0 256 133" version="1.1" xmlns="http://www.w3.org/2000/svg" preserveAspectRatio="xMidYMid">
    <g>
        <path d="M235.648276,111.430805 L235.648276,111.430805 L235.648276,111.430805 C235.648276,111.430805 219.088276,111.430805 219.088276,111.430805 C219.088276,111.430805 219.088276,117.147126 219.088276,117.147126 C219.088276,117.147126 228.230115,117.147126 228.230115,117.147126 C228.230115,117.147126 228.230115,132.88 228.230115,132.88 C228.230115,132.88 235.648276,132.88 235.648276,132.88 C235.648276,132.88 235.648276,117.147126 235.648276,117.147126 C235.648276,117.147126 244.793103,117.147126 244.793103,117.147126 C244.793103,117.147126 244.793103,111.430805 244.793103,111.430805 C244.793103,111.430805 235.648276,111.430805 235.648276,111.430805 M207.452414,111.430805 L207.452414,111.430805 L207.452414,111.430805 C207.452414,111.430805 200.034483,111.430805 200.034483,111.430805 C200.034483,111.430805 200.034483,117.147126 200.034483,117.147126 C200.034483,117.147126 207.452414,117.147126 207.452414,117.147126 C207.452414,117.147126 207.452414,132.88 207.452414,132.88 C207.452414,132.88 214.870345,132.88 214.870345,132.88 C214.870345,132.88 214.870345,111.430805 214.870345,111.430805 C214.870345,111.430805 207.452414,111.430805 207.452414,111.430805 M197.324138,111.430805 L197.324138,111.430805 L197.324138,111.430805 C197.324138,111.430805 182.475862,111.430805 182.475862,111.430805 C182.475862,111.430805 182.475862,132.88 182.475862,132.88 C182.475862,132.88 189.893793,132.88 189.893793,132.88 C189.893793,132.88 189.893793,124.452414 189.893793,124.452414 C189.893793,124.452414 197.324138,124.452414 197.324138,124.452414 C197.324138,124.452414 197.324138,118.736092 197.324138,118.736092 C197.324138,118.736092 189.893793,118.736092 189.893793,118.736092 C189.893793,118.736092 189.893793,117.147126 189.893793,117.147126 C189.893793,117.147126 197.324138,117.147126 197.324138,117.147126 C197.324138,117.147126 197.324138,111.430805 197.324138,111.430805 M179.765517,111.430805 L179.765517,111.430805 L179.765517,111.430805 C179.765517,111.430805 164.917241,111.430805 164.917241,111.430805 C164.917241,111.430805 164.917241,132.88 164.917241,132.88 C164.917241,132.88 172.334483,132.88 172.334483,132.88 C172.334483,132.88 172.334483,124.452414 172.334483,124.452414 C172.334483,124.452414 179.765517,124.452414 179.765517,124.452414 C179.765517,124.452414 179.765517,118.736092 179.765517,118.736092 C179.765517,118.736092 172.334483,118.736092 172.334483,118.736092 C172.334483,118.736092 172.334483,117.147126 172.334483,117.147126 C172.334483,117.147126 179.765517,117.147126 179.765517,117.147126 C179.765517,117.147126 179.765517,111.430805 179.765517,111.430805" fill="#00758F"></path>
        <path d="M126.834483,111.430805 L126.834483,111.430805 L126.834483,111.430805 C126.834483,111.430805 119.416552,111.430805 119.416552,111.430805 C119.416552,111.430805 119.416552,117.147126 119.416552,117.147126 C119.416552,117.147126 126.834483,117.147126 126.834483,117.147126 C126.834483,117.147126 126.834483,132.88 126.834483,132.88 C126.834483,132.88 134.252414,132.88 134.252414,132.88 C134.252414,132.88 134.252414,111.430805 134.252414,111.430805 C134.252414,111.430805 126.834483,111.430805 126.834483,111.430805 M116.706207,111.430805 L116.706207,111.430805 L116.706207,111.430805 C116.706207,111.430805 101.857931,111.430805 101.857931,111.430805 C101.857931,111.430805 101.857931,132.88 101.857931,132.88 C101.857931,132.88 109.275862,132.88 109.275862,132.88 C109.275862,132.88 109.275862,124.452414 109.275862,124.452414 C109.275862,124.452414 116.706207,124.452414 116.706207,124.452414 C116.706207,124.452414 116.706207,118.736092 116.706207,118.736092 C116.706207,118.736092 109.275862,118.736092 109.275862,118.736092 C109.275862,118.736092 109.275862,117.147126 109.275862,117.147126 C109.275862,117.147126 116.706207,117.147126 116.706207,117.147126 C116.706207,117.147126 116.706207,111.430805 116.706207,111.430805 M99.147586,111.430805 L99.147586,111.430805 L99.147586,111.430805 C99.147586,111.430805 84.2993103,111.430805 84.2993103,111.430805 C84.2993103,111.430805 84.2993103,132.88 84.2993103,132.88 C84.2993103,132.88 91.7172414,132.88 91.7172414,132.88 C91.7172414,132.88 91.7172414,124.452414 91.7172414,124.452414 C91.7172414,124.452414 99.147586,124.452414 99.147586,124.452414 C99.147586,124.452414 99.147586,118.736092 99.147586,118.736092 C99.147586,118.736092 91.7172414,118.736092 91.7172414,118.736092 C91.7172414,118.736092 91.7172414,117.147126 91.7172414,117.147126 C91.7172414,117.147126 99.147586,117.147126 99.147586,117.147126 C99.147586,117.147126 99.147586,111.430805 99.147586,111.430805" fill="#F29111"></path>
        <path d="M67.8206897,111.430805 L67.8206897,111.430805 L67.8206897,111.430805 C67.8206897,111.430805 60.4027586,111.430805 60.4027586,111.430805 C60.4027586,111.430805 60.4027586,117.147126 60.4027586,117.147126 C60.4027586,117.147126 67.8206897,117.147126 67.8206897,117.147126 C67.8206897,117.147126 67.8206897,132.88 67.8206897,132.88 C67.8206897,132.88 75.2386207,132.88 75.2386207,132.88 C75.2386207,132.88 75.2386207,111.430805 75.2386207,111.430805 C75.2386207,111.430805 67.8206897,111.430805 67.8206897,111.430805 M57.6924138,111.430805 L57.6924138,111.430805 L57.6924138,111.430805 C57.6924138,111.430805 42.8441379,111.430805 42.8441379,111.430805 C42.8441379,111.430805 42.8441379,132.88 42.8441379,132.88 C42.8441379,132.88 50.262069,132.88 50.262069,132.88 C50.262069,132.88 50.262069,124.452414 50.262069,124.452414 C50.262069,124.452414 57.6924138,124.452414 57.6924138,124.452414 C57.6924138,124.452414 57.6924138,118.736092 57.6924138,118.736092 C57.6924138,118.736092 50.262069,118.736092 50.262069,118.736092 C50.262069,118.736092 50.262069,117.147126 50.262069,117.147126 C50.262069,117.147126 57.6924138,117.147126 57.6924138,117.147126 C57.6924138,117.147126 57.6924138,111.430805 57.6924138,111.430805 M40.1337931,111.430805 L40.1337931,111.430805 L40.1337931,111.430805 C40.1337931,111.430805 25.2855172,111.430805 25.2855172,111.430805 C25.2855172,111.430805 25.2855172,132.88 25.2855172,132.88 C25.2855172,132.88 32.7034483,132.88 32.7034483,132.88 C32.7034483,132.88 32.7034483,124.452414 32.7034483,124.452414 C32.7034483,124.452414 40.1337931,124.452414 40.1337931,124.452414 C40.1337931,124.452414 40.1337931,118.736092 40.1337931,118.736092 C40.1337931,118.736092 32.7034483,118.736092 32.7034483,118.736092 C32.7034483,118.736092 32.7034483,117.147126 32.7034483,117.147126 C32.7034483,117.147126 40.1337931,117.147126 40.1337931,117.147126 C40.1337931,117.147126 40.1337931,111.430805 40.1337931,111.430805" fill="#00758F"></path>
        <path d="M22.5751724,111.430805 L22.5751724,111.430805 L22.5751724,111.430805 C22.5751724,111.430805 7.72689655,111.430805 7.72689655,111.430805 C7.72689655,111.430805 7.72689655,132.88 7.72689655,132.88 C7.72689655,132.88 15.1448276,132.88 15.1448276,132.88 C15.1448276,132.88 15.1448276,124.452414 15.1448276,124.452414 C15.1448276,124.452414 22.5751724,124.452414 22.5751724,124.452414 C22.5751724,124.452414 22.5751724,118.736092 22.5751724,118.736092 C22.5751724,118.736092 15.1448276,118.736092 15.1448276,118.736092 C15.1448276,118.736092 15.1448276,117.147126 15.1448276,117.147126 C15.1448276,117.147126 22.5751724,117.147126 22.5751724,117.147126 C22.5751724,117.147126 22.5751724,111.430805 22.5751724,111.430805" fill="#F29111"></path>
        <path d="M162.206897,111.430805 L162.206897,111.430805 L162.206897,111.430805 C162.206897,111.430805 154.788966,111.430805 154.788966,111.430805 C154.788966,111.430805 154.788966,117.147126 154.788966,117.147126 C154.788966,117.147126 162.206897,117.147126 162.206897,117.147126 C162.206897,117.147126 162.206897,132.88 162.206897,132.88 C162.206897,132.88 169.624828,132.88 169.624828,132.88 C169.624828,132.88 169.624828,111.430805 169.624828,111.430805 C169.624828,111.430805 162.206897,111.430805 162.206897,111.430805" fill="#F29111"></path>
        <path d="M144.660691,111.430805 L144.660691,111.430805 L144.660691,111.430805 C144.660691,111.430805 137.24276,111.430805 137.24276,111.430805 C137.24276,111.430805 137.24276,117.147126 137.24276,117.147126 C137.24276,117.147126 144.660691,117.147126 144.660691,117.147126 C144.660691,117.147126 144.660691,132.88 144.660691,132.88 C144.660691,132.88 152.078622,132.88 152.078622,132.88 C152.078622,132.88 152.078622,111.430805 152.078622,111.430805 C152.078622,111.430805 144.660691,111.430805 144.660691,111.430805" fill="#00758F"></path>
    </g>
</svg>
