<?xml version="1.0" encoding="UTF-8"?>
<svg width="256px" height="264px" viewBox="0 0 256 264" version="1.1" xmlns="http://www.w3.org/2000/svg" preserveAspectRatio="xMidYMid">
    <g>
        <path d="M255.007926,158.085617 C253.473109,153.437413 249.452194,150.199279 244.251788,149.42182 C241.799982,149.055852 238.991667,149.211935 235.668988,149.897164 C229.877358,151.092028 227.342115,151.546679 224.282765,151.635363 C212.637965,151.917352 203.811094,149.074082 196.493952,142.910043 C195.722493,142.216664 194.982634,141.480889 194.275171,140.710042 C199.430172,128.54199 203.499171,118.193683 206.206298,110.52772 C207.604493,106.985214 208.797655,103.818977 209.787793,100.832134 C211.090214,96.9861821 212.098599,93.4583233 212.8072,90.0380816 C215.809963,76.4020008 216.984762,60.9125293 210.635658,45.5928633 C205.780569,33.5157823 197.600177,22.9276317 186.738225,14.8079755 C176.10664,6.88371774 163.265874,2.31927934 149.391505,1.24713797 C148.368208,1.1762584 147.332312,1.12847583 146.311098,1.09367447 C141.388185,0.933774262 136.556962,1.25083579 131.崩溃了,2.05308003 C127.047613,2.76666808 122.901235,3.85178068 118.908006,5.30952296 C114.914164,6.76726523 111.074461,8.59259885 107.384897,10.7863094 C103.695333,12.97963 100.156711,15.5415744 96.8240048,18.4611759 C93.4905847,21.3811912 90.3612513,24.6605258 87.4397162,28.2991796 C84.5185949,31.9374196 81.8016603,35.9349787 79.3232949,40.2791533 C76.8445158,44.6237417 74.5942057,49.3151359 72.5718647,54.3533359 C70.5491099,59.3919496 68.7543241,64.7773693 67.1710453,70.5105728 C65.5877665,76.2445043 64.2159571,82.3261198 63.0751271,88.7420963 C61.9346989,95.1584865 61.0152401,101.912543 60.3282649,108.98961 C59.6404758,116.067289 59.1842631,123.462635 58.9465141,131.185648 C58.7091789,138.909273 58.6900312,146.960565 58.9086789,155.327613 C58.9209366,156.009878 58.9340082,156.68806 58.9478937,157.374694 L0.7036237,157.374694 L0.7036237,262.872804 L255.296376,262.872804 L255.296376,158.085617 L255.007926,158.085617 Z" fill="#336791"></path>
        <path d="M237.905589,160.722476 C236.143526,156.489844 232.127168,153.492272 227.196201,152.772669 C225.126399,152.448255 222.712901,152.587102 219.828455,153.197954 C214.683165,154.2636 212.472378,154.666563 209.760006,154.745135 C199.0156,154.999045 190.998526,152.427401 184.331584,146.752985 C183.540524,146.037752 182.779839,145.278419 182.048727,144.482598 C187.198312,132.543563 191.254271,122.398744 193.948728,114.873973 C195.033312,112.014924 196.038399,109.470459 196.89399,107.063227 C198.165664,103.340017 199.141141,99.9403739 199.825339,96.6489557 C202.766926,83.3581827 203.914406,68.2554667 197.682993,53.3301053 C192.923584,41.5396057 184.889137,31.1825607 174.228525,23.2579774 C163.798588,15.5127319 151.215674,11.0630913 137.615953,10.0151511 C136.613625,9.94561335 135.598956,9.89830916 134.598981,9.86428433 C129.775538,9.70773287 125.041946,10.0131069 120.394686,10.7978533 C115.749079,11.4977566 111.265292,12.5561221 106.955449,13.9723053 C102.645606,15.3888885 98.4978877,17.1726462 94.4842569,19.3157061 C90.4706261,21.4583522 86.6211546,23.9518775 83.0089271,26.7942501 C79.3970997,29.6370227 75.9952491,32.8232698 72.8392933,36.3489414 C69.6837375,39.8750131 66.7659766,43.7404091 64.1317107,47.9461196 C61.4974448,52.1526301 59.1007738,56.7015558 56.9619978,61.5942139 C54.8228218,66.4876721 52.9213407,71.7249546 51.2571545,77.2973615 C49.5933684,82.8705685 48.1518772,88.7892999 46.9530422,95.0366447 C45.7546073,101.284601 44.7874674,107.859124 44.0706225,114.745095 C43.3533775,121.631677 42.8811275,128.835826 42.6335735,136.367542 C42.3868196,143.899869 42.3671719,151.758763 42.5818095,159.924224 C42.6150594,161.389357 42.6532093,162.873458 42.6934592,164.367147 C42.8494091,169.574835 43.0749588,175.252824 43.3725085,181.42981 C43.6704582,187.606384 44.0400078,194.274161 44.4825074,201.42303 C44.9246069,208.572722 45.4397065,216.203515 46.0270559,224.31741 C46.6144054,232.431305 47.2745048,240.027301 48.0069541,247.105399 C48.7394035,254.183908 49.5442028,260.744519 50.4217521,266.78433 C50.4313521,266.853624 50.4437521,266.922506 50.4533521,266.991388 L205.420171,266.991388 C205.429771,266.922506 205.442171,266.853624 205.451771,266.78433 C206.329321,260.744519 207.13372,254.183908 207.866169,247.105399 C208.598619,240.027301 209.258718,232.431305 209.846168,224.31741 C210.433617,216.203515 210.948717,208.572722 211.390816,201.42303 C211.833316,194.274161 212.202866,187.606384 212.500815,181.42981 C212.798365,175.252824 213.023915,169.574835 213.179865,164.367147 C213.220115,162.873458 213.258265,161.389357 213.291515,159.924224 C213.506165,151.758763 213.486517,143.899869 213.239763,136.367542 C213.18814,134.657859 213.128517,132.974801 213.060894,131.317367 L255.296376,131.317367 L255.296376,160.722476 L237.905589,160.722476" fill="#FFFFFF"></path>
    </g>
</svg>
